<?xml version="1.0" standalone="no"?>
<!DOCTYPE svg PUBLIC "-//W3C//DTD SVG 20010904//EN"
 "http://www.w3.org/TR/2001/REC-SVG-20010904/DTD/svg10.dtd">
<svg version="1.0" xmlns="http://www.w3.org/2000/svg"
 width="152.000000pt" height="152.000000pt" viewBox="0 0 152.000000 152.000000"
 preserveAspectRatio="xMidYMid meet">
<metadata>
Created by potrace 1.14, written by Peter Selinger 2001-2017
</metadata>
<g transform="translate(0.000000,152.000000) scale(0.100000,-0.100000)"
fill="#000000" stroke="none">
<path d="M175 1502 c-11 -9 -21 -25 -23 -35 -2 -10 -13 -34 -25 -55 -17 -30
-18 -34 -4 -23 26 20 34 4 9 -17 -12 -11 -28 -31 -36 -46 -14 -27 -11 -66 5
-66 5 0 0 -23 -11 -50 -11 -28 -20 -53 -20 -55 0 -10 45 6 63 22 12 10 6 -3
-13 -30 -29 -41 -35 -57 -35 -105 0 -40 4 -56 13 -54 16 3 15 -18 -2 -37 -7
-9 -17 -26 -20 -38 -6 -17 -3 -20 12 -16 15 3 21 -2 24 -21 3 -14 1 -26 -3
-26 -5 0 -9 -5 -9 -11 0 -5 3 -8 7 -6 5 3 9 -6 9 -20 2 -29 6 -34 32 -36 12 0
18 -6 15 -14 -6 -16 -23 -17 -23 -2 0 5 -4 8 -9 4 -5 -3 -19 7 -30 21 l-21 27
0 -24 c0 -14 8 -36 17 -49 10 -14 17 -26 15 -27 -1 -2 -1 -5 -1 -8 1 -3 2 -8
3 -12 9 -37 20 -54 32 -49 19 7 35 -27 28 -62 -5 -24 -2 -32 14 -41 17 -9 19
-8 15 9 -3 11 -9 20 -14 20 -5 0 -9 4 -9 9 0 5 8 8 17 7 11 -2 20 -15 24 -35
4 -18 10 -35 14 -39 4 -4 4 4 0 16 -6 22 -5 23 15 12 17 -9 21 -19 18 -41 -4
-26 -2 -29 21 -29 19 0 22 -3 12 -9 -7 -5 -22 -6 -32 -4 -10 3 -19 0 -19 -6 0
-10 21 -16 43 -12 4 0 7 -6 7 -14 0 -13 -12 -19 -32 -16 -4 0 -4 -9 1 -22 5
-12 13 -23 20 -23 23 -3 25 -4 14 -15 -8 -8 -8 -20 -3 -35 11 -28 2 -90 -18
-125 -18 -31 -74 -61 -99 -53 -15 5 -16 4 -3 -5 11 -8 12 -11 2 -11 -7 0 -11
-4 -8 -9 3 -5 -6 -12 -21 -16 -15 -3 -54 -26 -86 -51 l-59 -44 207 0 207 0 -6
38 -6 37 16 -37 16 -36 180 -2 c127 0 178 3 173 10 -10 16 -57 36 -93 39 -7 0
-26 14 -44 31 -17 16 -36 30 -43 30 -19 0 -61 53 -57 73 2 10 -3 17 -12 17 -9
0 -16 4 -16 9 0 5 -3 16 -6 25 -6 14 -3 14 30 1 43 -18 45 -13 10 28 l-26 31
43 12 c45 11 89 31 89 40 0 2 -24 4 -53 3 -67 -2 -139 18 -159 46 -12 15 -9
-4 3 -27 8 -15 8 -19 0 -14 -17 11 -26 -24 -11 -47 8 -14 9 -22 2 -25 -7 -2
-7 -14 -1 -34 22 -79 -27 -13 -66 87 -15 39 -37 79 -48 89 -14 12 -18 20 -10
23 9 3 9 10 0 31 -6 15 -16 31 -22 35 -5 5 0 5 12 2 19 -5 23 -2 23 14 0 12 3
21 8 21 27 0 38 149 12 158 -6 2 -9 13 -9 25 1 17 2 18 6 5 6 -22 23 -24 23
-3 0 9 -6 31 -14 50 -8 19 -11 37 -6 40 5 3 11 -3 13 -12 2 -10 3 -7 2 6 -3
26 6 39 81 120 51 55 92 129 77 140 -5 3 -8 23 -8 44 0 28 3 34 10 23 9 -11
15 -6 33 25 13 22 27 37 31 34 5 -3 11 1 14 9 7 16 48 37 124 61 31 10 58 26
67 41 15 21 15 24 1 24 -13 0 -14 4 -5 20 12 23 30 27 30 6 0 -8 7 -16 15 -20
8 -3 15 -15 15 -26 0 -11 5 -20 11 -20 6 0 9 -7 5 -15 -4 -12 -2 -13 13 -6 10
6 21 7 25 4 3 -4 17 4 31 17 14 13 25 20 25 15 0 -5 5 -4 12 3 7 7 17 12 22
12 6 0 5 -5 -2 -12 -19 -19 -14 -25 26 -32 43 -6 72 -33 124 -116 20 -30 54
-73 78 -95 45 -43 73 -91 84 -142 5 -22 12 -30 24 -28 9 2 21 4 25 4 5 1 6 5
3 10 -3 5 1 28 9 52 9 23 12 51 9 62 -4 12 -2 17 4 13 14 -9 7 161 -9 201 -11
30 -47 73 -61 73 -13 0 -88 76 -88 89 0 6 -5 11 -11 11 -5 0 -7 -5 -4 -10 4
-6 -10 -1 -30 10 -20 11 -40 18 -45 15 -4 -3 -11 2 -14 11 -3 8 -10 13 -15 10
-5 -3 -14 0 -19 7 -16 19 44 55 61 38 9 -9 8 -11 -5 -6 -11 4 -18 2 -18 -4 0
-6 5 -11 11 -11 5 0 8 -4 5 -9 -3 -4 6 -7 20 -5 19 2 37 -8 65 -36 22 -21 39
-37 39 -34 0 2 11 -1 25 -6 25 -10 25 -9 11 18 -13 26 -57 61 -111 91 -20 10
-20 10 0 11 12 0 27 -6 34 -12 11 -11 13 -10 9 2 -4 13 -39 15 -234 15 -211 0
-229 -1 -228 -17 1 -10 -2 -15 -7 -12 -5 3 -9 12 -9 20 0 12 -43 14 -282 14
-253 -1 -285 -3 -303 -18z m855 -39 c8 -3 23 -7 32 -8 10 -1 21 -5 25 -10 5
-4 -1 -5 -12 -1 -15 5 -17 4 -9 -4 9 -9 17 -9 34 0 15 8 20 8 16 1 -4 -6 -2
-12 3 -12 6 -1 16 -2 23 -3 6 0 13 -11 15 -24 2 -16 -1 -21 -9 -16 -7 4 2 -9
20 -27 40 -44 42 -63 2 -24 -16 16 -30 25 -30 21 0 -4 -16 5 -35 20 -19 14
-35 23 -35 20 0 -11 -53 21 -89 53 l-35 31 35 -6 c18 -3 41 -8 49 -11z m-335
-13 c-3 -5 2 -10 12 -11 10 -1 2 -5 -17 -9 -19 -5 -41 -4 -50 0 -12 8 -11 9 7
10 12 0 25 5 28 10 3 6 11 10 16 10 6 0 7 -4 4 -10z m120 -22 c6 -4 0 -8 -12
-8 -16 0 -21 4 -16 15 3 9 8 12 12 8 3 -4 11 -11 16 -15z m15 -27 c0 -13 -28
-22 -35 -11 -3 4 1 11 7 13 20 8 28 8 28 -2z m226 -17 c16 -7 39 -23 50 -35
l19 -22 -23 12 c-12 7 -27 9 -32 6 -5 -3 -19 -1 -30 5 -13 7 -20 7 -20 0 0 -5
-14 -10 -31 -10 -18 0 -28 4 -24 10 4 6 11 8 16 5 5 -4 9 -4 9 -1 0 3 -12 12
-27 21 l-28 16 31 -4 c23 -2 31 0 27 10 -6 14 8 12 63 -13z m-467 6 c-6 -5
-18 -6 -26 -3 -19 8 -16 11 13 11 17 0 22 -3 13 -8z m131 -20 c-8 -5 -19 -10
-25 -10 -5 0 -3 5 5 10 8 5 20 10 25 10 6 0 3 -5 -5 -10z m31 -27 c-18 -31
-35 -49 -58 -61 -31 -17 -53 -14 -23 3 14 8 19 14 11 15 -11 0 -10 5 4 20 10
12 25 18 32 16 7 -3 15 0 19 6 5 7 2 8 -6 3 -9 -5 -11 -4 -6 3 4 7 14 12 22
12 11 0 12 -4 5 -17z m-540 -56 c-10 -9 -11 -8 -5 6 3 10 9 15 12 12 3 -3 0
-11 -7 -18z m434 -27 c3 -5 1 -10 -4 -10 -6 0 -11 5 -11 10 0 6 2 10 4 10 3 0
8 -4 11 -10z m-280 -589 c3 -5 1 -12 -5 -16 -5 -3 -10 1 -10 9 0 18 6 21 15 7z
m195 -651 c0 -5 -5 -10 -11 -10 -5 0 -7 5 -4 10 3 6 8 10 11 10 2 0 4 -4 4
-10z"/>
<path d="M1166 1449 c3 -5 14 -14 26 -20 17 -9 19 -9 10 7 -5 10 -17 19 -26
20 -9 1 -14 -2 -10 -7z"/>
<path d="M607 846 c-4 -10 5 -16 28 -20 32 -6 57 -35 32 -37 -37 -2 -95 -10
-117 -16 -14 -4 -29 -8 -35 -8 -55 -8 -83 -48 -52 -73 30 -25 152 -29 201 -7
20 10 23 13 7 9 -17 -4 -21 -3 -16 6 4 6 10 23 14 36 l6 25 28 -21 c15 -12 25
-26 22 -31 -8 -12 28 2 37 15 5 8 14 7 29 -2 11 -7 24 -11 27 -8 3 3 -1 6 -9
6 -11 0 -11 2 1 10 40 25 -72 113 -145 114 -18 1 -31 4 -28 9 2 4 -2 7 -10 7
-8 0 -17 -6 -20 -14z"/>
<path d="M1055 835 c-44 -16 -71 -43 -55 -59 6 -6 15 -4 25 4 14 12 18 11 25
0 5 -8 7 -17 4 -21 -8 -14 48 -19 89 -8 52 15 69 30 73 63 2 20 -3 27 -22 32
-14 4 -28 4 -31 0 -4 -3 3 -6 15 -6 11 0 24 -5 27 -10 4 -7 -3 -8 -22 -4 -15
4 -29 11 -31 16 -5 12 -52 9 -97 -7z m123 -34 c10 -6 7 -12 -12 -24 -37 -24
-50 -21 -29 8 20 27 22 28 41 16z"/>
<path d="M146 622 c-2 -4 -1 -14 5 -22 7 -12 9 -10 9 8 0 23 -5 28 -14 14z"/>
<path d="M770 478 l-19 -42 27 -23 c22 -20 34 -23 66 -18 22 3 44 1 52 -6 17
-14 65 -3 58 14 -2 6 -26 19 -52 28 -41 13 -50 14 -61 2 -17 -19 -46 -12 -45
10 1 9 -2 17 -8 17 -5 0 -2 10 6 22 19 26 20 38 6 38 -6 0 -19 -19 -30 -42z"/>
<path d="M817 506 c-4 -10 -5 -21 -2 -24 9 -9 17 6 13 25 -3 17 -4 17 -11 -1z"/>
<path d="M236 484 c-10 -25 1 -29 14 -5 6 12 7 21 1 21 -5 0 -12 -7 -15 -16z"/>
<path d="M997 443 c-10 -9 -9 -23 1 -23 5 0 17 7 28 15 19 14 19 14 -2 15 -11
0 -24 -3 -27 -7z"/>
<path d="M1194 405 c16 -16 56 -21 56 -6 0 11 -25 21 -52 21 -17 0 -18 -2 -4
-15z"/>
<path d="M646 305 c-10 -28 5 -47 32 -40 19 5 30 -1 53 -26 16 -18 26 -36 23
-40 -7 -12 32 -52 54 -56 41 -7 140 -3 167 7 28 11 65 42 65 55 0 3 -8 1 -18
-4 -10 -5 -27 -8 -38 -7 -10 2 -28 -1 -40 -6 -28 -13 -87 3 -90 25 -3 19 20
28 68 27 18 -1 52 6 76 14 24 9 48 14 53 11 5 -4 9 -1 9 4 0 6 6 11 14 11 7 0
20 7 27 16 12 15 10 16 -21 9 -19 -4 -44 -14 -55 -21 -13 -8 -35 -11 -55 -8
-19 3 -78 5 -131 4 -82 0 -100 3 -121 20 -31 24 -64 26 -72 5z"/>
</g>
</svg>
